<?xml version="1.0" standalone="no"?>
<!DOCTYPE svg PUBLIC "-//W3C//DTD SVG 20010904//EN" 
"http://www.w3.org/TR/2001/REC-SVG-20010904/DTD/svg10.dtd"> 
<svg xmlns="http://www.w3.org/2000/svg" xmlns:xlink="http://www.w3.org/1999/xlink" 
    width="17.07cm" height="8.36cm" viewBox="0 0 484 237 "> 
<title>SVG Picture created as columbusConnectivityHistFrame.svg </title>
<desc>Picture generated by wxSVG v0100 </desc>
<g style="fill:black; stroke:black; stroke-width:1">
</g>
<g style="fill:#FFFFFF; fill-opacity:1.00; stroke:#FFFFFF; stroke-opacity:1.00; stroke-linecap:round; stroke-linejoin:round; stroke-width:1" 
   transform="translate(0.00 0.00) scale(1.00 1.00)">
 <rect x="0" y="0" width="484" height="237" rx="0.00"  /> 
</g>
<g style="fill:#0000FF; fill-opacity:1.00; stroke:#000000; stroke-opacity:1.00; stroke-linecap:round; stroke-linejoin:round; stroke-width:1" 
   transform="translate(0.00 0.00) scale(1.00 1.00)">
<path d="M51 180 L51 25" /> 
<path d="M46 180 L51 180" /> 
 <text x="42" y="182" style="font-family:Arial; font-weight:normal; font-style:normal; font-size:8pt; fill:#000000; fill-opacity:1.00; stroke:#000000; stroke-opacity:1.00; stroke-width:0;"  transform="rotate( -90.00 42 182 )  " >0</text> 
<path d="M46 154 L51 154" /> 
 <text x="42" y="156" style="font-family:Arial; font-weight:normal; font-style:normal; font-size:8pt; fill:#000000; fill-opacity:1.00; stroke:#000000; stroke-opacity:1.00; stroke-width:0;"  transform="rotate( -90.00 42 156 )  " >2</text> 
<path d="M46 128 L51 128" /> 
 <text x="42" y="130" style="font-family:Arial; font-weight:normal; font-style:normal; font-size:8pt; fill:#000000; fill-opacity:1.00; stroke:#000000; stroke-opacity:1.00; stroke-width:0;"  transform="rotate( -90.00 42 130 )  " >4</text> 
<path d="M46 102 L51 102" /> 
 <text x="42" y="104" style="font-family:Arial; font-weight:normal; font-style:normal; font-size:8pt; fill:#000000; fill-opacity:1.00; stroke:#000000; stroke-opacity:1.00; stroke-width:0;"  transform="rotate( -90.00 42 104 )  " >6</text> 
<path d="M46 76 L51 76" /> 
 <text x="42" y="78" style="font-family:Arial; font-weight:normal; font-style:normal; font-size:8pt; fill:#000000; fill-opacity:1.00; stroke:#000000; stroke-opacity:1.00; stroke-width:0;"  transform="rotate( -90.00 42 78 )  " >8</text> 
<path d="M46 50 L51 50" /> 
 <text x="42" y="55" style="font-family:Arial; font-weight:normal; font-style:normal; font-size:8pt; fill:#000000; fill-opacity:1.00; stroke:#000000; stroke-opacity:1.00; stroke-width:0;"  transform="rotate( -90.00 42 55 )  " >10</text> 
<path d="M46 25 L51 25" /> 
 <text x="42" y="30" style="font-family:Arial; font-weight:normal; font-style:normal; font-size:8pt; fill:#000000; fill-opacity:1.00; stroke:#000000; stroke-opacity:1.00; stroke-width:0;"  transform="rotate( -90.00 42 30 )  " >12</text> 
 <text x="24" y="128" style="font-family:Arial; font-weight:normal; font-style:normal; font-size:8pt; fill:#000000; fill-opacity:1.00; stroke:#000000; stroke-opacity:1.00; stroke-width:0;"  transform="rotate( -90.00 24 128 )  " >Frequency</text> 
</g>
<g style="fill:#0000FF; fill-opacity:1.00; stroke:#000000; stroke-opacity:1.00; stroke-linecap:round; stroke-linejoin:round; stroke-width:1" 
   transform="translate(0.00 0.00) scale(1.00 1.00)">
<path d="M60 189 L459 189" /> 
<path d="M60 189 L60 194" /> 
 <text x="57" y="211" style="font-family:Arial; font-weight:normal; font-style:normal; font-size:8pt; fill:#000000; fill-opacity:1.00; stroke:#000000; stroke-opacity:1.00; stroke-width:0;"  transform="rotate( -0.00 57 211 )  " >2</text> 
<path d="M104 189 L104 194" /> 
 <text x="101" y="211" style="font-family:Arial; font-weight:normal; font-style:normal; font-size:8pt; fill:#000000; fill-opacity:1.00; stroke:#000000; stroke-opacity:1.00; stroke-width:0;"  transform="rotate( -0.00 101 211 )  " >3</text> 
<path d="M148 189 L148 194" /> 
 <text x="145" y="211" style="font-family:Arial; font-weight:normal; font-style:normal; font-size:8pt; fill:#000000; fill-opacity:1.00; stroke:#000000; stroke-opacity:1.00; stroke-width:0;"  transform="rotate( -0.00 145 211 )  " >4</text> 
<path d="M193 189 L193 194" /> 
 <text x="190" y="211" style="font-family:Arial; font-weight:normal; font-style:normal; font-size:8pt; fill:#000000; fill-opacity:1.00; stroke:#000000; stroke-opacity:1.00; stroke-width:0;"  transform="rotate( -0.00 190 211 )  " >5</text> 
<path d="M237 189 L237 194" /> 
 <text x="234" y="211" style="font-family:Arial; font-weight:normal; font-style:normal; font-size:8pt; fill:#000000; fill-opacity:1.00; stroke:#000000; stroke-opacity:1.00; stroke-width:0;"  transform="rotate( -0.00 234 211 )  " >6</text> 
<path d="M281 189 L281 194" /> 
 <text x="278" y="211" style="font-family:Arial; font-weight:normal; font-style:normal; font-size:8pt; fill:#000000; fill-opacity:1.00; stroke:#000000; stroke-opacity:1.00; stroke-width:0;"  transform="rotate( -0.00 278 211 )  " >7</text> 
<path d="M326 189 L326 194" /> 
 <text x="323" y="211" style="font-family:Arial; font-weight:normal; font-style:normal; font-size:8pt; fill:#000000; fill-opacity:1.00; stroke:#000000; stroke-opacity:1.00; stroke-width:0;"  transform="rotate( -0.00 323 211 )  " >8</text> 
<path d="M370 189 L370 194" /> 
 <text x="367" y="211" style="font-family:Arial; font-weight:normal; font-style:normal; font-size:8pt; fill:#000000; fill-opacity:1.00; stroke:#000000; stroke-opacity:1.00; stroke-width:0;"  transform="rotate( -0.00 367 211 )  " >9</text> 
<path d="M414 189 L414 194" /> 
 <text x="408" y="211" style="font-family:Arial; font-weight:normal; font-style:normal; font-size:8pt; fill:#000000; fill-opacity:1.00; stroke:#000000; stroke-opacity:1.00; stroke-width:0;"  transform="rotate( -0.00 408 211 )  " >10</text> 
<path d="M459 189 L459 194" /> 
 <text x="453" y="211" style="font-family:Arial; font-weight:normal; font-style:normal; font-size:8pt; fill:#000000; fill-opacity:1.00; stroke:#000000; stroke-opacity:1.00; stroke-width:0;"  transform="rotate( -0.00 453 211 )  " >11</text> 
 <text x="208" y="229" style="font-family:Arial; font-weight:normal; font-style:normal; font-size:8pt; fill:#000000; fill-opacity:1.00; stroke:#000000; stroke-opacity:1.00; stroke-width:0;"  transform="rotate( -0.00 208 229 )  " >Number of Neighbors</text> 
</g> 
</svg> 
