<?xml version="1.0" standalone="no"?>
<!DOCTYPE svg PUBLIC "-//W3C//DTD SVG 20010904//EN" 
"http://www.w3.org/TR/2001/REC-SVG-20010904/DTD/svg10.dtd"> 
<svg xmlns="http://www.w3.org/2000/svg" xmlns:xlink="http://www.w3.org/1999/xlink" 
    width="13.55cm" height="11.89cm" viewBox="0 0 384 337 "> 
<title>SVG Picture created as MoransICrime.svg </title>
<desc>Picture generated by wxSVG v0100 </desc>
<g style="fill:black; stroke:black; stroke-width:1">
</g>
<g style="fill:#FFFFFF; fill-opacity:1.00; stroke:#FFFFFF; stroke-opacity:1.00; stroke-linecap:round; stroke-linejoin:round; stroke-width:1" 
   transform="translate(0.00 0.00) scale(1.00 1.00)">
 <rect x="0" y="0" width="384" height="337" rx="0.00"  /> 
</g>
<g style="fill:#0000FF; fill-opacity:1.00; stroke:#000000; stroke-opacity:1.00; stroke-linecap:round; stroke-linejoin:round; stroke-width:1" 
   transform="translate(0.00 0.00) scale(1.00 1.00)">
<path d="M73 287 L335 287" /> 
<path d="M73 287 L73 292" /> 
 <text x="63" y="309" style="font-family:Arial; font-weight:normal; font-style:normal; font-size:8pt; fill:#000000; fill-opacity:1.00; stroke:#000000; stroke-opacity:1.00; stroke-width:0;"  transform="rotate( -0.00 63 309 )  " >-2.6</text> 
<path d="M123 287 L123 292" /> 
 <text x="113" y="309" style="font-family:Arial; font-weight:normal; font-style:normal; font-size:8pt; fill:#000000; fill-opacity:1.00; stroke:#000000; stroke-opacity:1.00; stroke-width:0;"  transform="rotate( -0.00 113 309 )  " >-1.6</text> 
<path d="M173 287 L173 292" /> 
 <text x="163" y="309" style="font-family:Arial; font-weight:normal; font-style:normal; font-size:8pt; fill:#000000; fill-opacity:1.00; stroke:#000000; stroke-opacity:1.00; stroke-width:0;"  transform="rotate( -0.00 163 309 )  " >-0.6</text> 
<path d="M224 287 L224 292" /> 
 <text x="216" y="309" style="font-family:Arial; font-weight:normal; font-style:normal; font-size:8pt; fill:#000000; fill-opacity:1.00; stroke:#000000; stroke-opacity:1.00; stroke-width:0;"  transform="rotate( -0.00 216 309 )  " >0.4</text> 
<path d="M274 287 L274 292" /> 
 <text x="266" y="309" style="font-family:Arial; font-weight:normal; font-style:normal; font-size:8pt; fill:#000000; fill-opacity:1.00; stroke:#000000; stroke-opacity:1.00; stroke-width:0;"  transform="rotate( -0.00 266 309 )  " >1.4</text> 
<path d="M324 287 L324 292" /> 
 <text x="316" y="309" style="font-family:Arial; font-weight:normal; font-style:normal; font-size:8pt; fill:#000000; fill-opacity:1.00; stroke:#000000; stroke-opacity:1.00; stroke-width:0;"  transform="rotate( -0.00 316 309 )  " >2.4</text> 
 <text x="189" y="327" style="font-family:Arial; font-weight:normal; font-style:normal; font-size:8pt; fill:#000000; fill-opacity:1.00; stroke:#000000; stroke-opacity:1.00; stroke-width:0;"  transform="rotate( -0.00 189 327 )  " >CRIME</text> 
</g>
<g style="fill:#0000FF; fill-opacity:1.00; stroke:#000000; stroke-opacity:1.00; stroke-linecap:round; stroke-linejoin:round; stroke-width:1" 
   transform="translate(0.00 0.00) scale(1.00 1.00)">
<path d="M73 287 L73 25" /> 
<path d="M68 287 L73 287" /> 
 <text x="64" y="296" style="font-family:Arial; font-weight:normal; font-style:normal; font-size:8pt; fill:#000000; fill-opacity:1.00; stroke:#000000; stroke-opacity:1.00; stroke-width:0;"  transform="rotate( -90.00 64 296 )  " >-2.6</text> 
<path d="M68 236 L73 236" /> 
 <text x="64" y="245" style="font-family:Arial; font-weight:normal; font-style:normal; font-size:8pt; fill:#000000; fill-opacity:1.00; stroke:#000000; stroke-opacity:1.00; stroke-width:0;"  transform="rotate( -90.00 64 245 )  " >-1.6</text> 
<path d="M68 186 L73 186" /> 
 <text x="64" y="195" style="font-family:Arial; font-weight:normal; font-style:normal; font-size:8pt; fill:#000000; fill-opacity:1.00; stroke:#000000; stroke-opacity:1.00; stroke-width:0;"  transform="rotate( -90.00 64 195 )  " >-0.6</text> 
<path d="M68 135 L73 135" /> 
 <text x="64" y="142" style="font-family:Arial; font-weight:normal; font-style:normal; font-size:8pt; fill:#000000; fill-opacity:1.00; stroke:#000000; stroke-opacity:1.00; stroke-width:0;"  transform="rotate( -90.00 64 142 )  " >0.4</text> 
<path d="M68 85 L73 85" /> 
 <text x="64" y="92" style="font-family:Arial; font-weight:normal; font-style:normal; font-size:8pt; fill:#000000; fill-opacity:1.00; stroke:#000000; stroke-opacity:1.00; stroke-width:0;"  transform="rotate( -90.00 64 92 )  " >1.4</text> 
<path d="M68 35 L73 35" /> 
 <text x="64" y="42" style="font-family:Arial; font-weight:normal; font-style:normal; font-size:8pt; fill:#000000; fill-opacity:1.00; stroke:#000000; stroke-opacity:1.00; stroke-width:0;"  transform="rotate( -90.00 64 42 )  " >2.4</text> 
 <text x="46" y="188" style="font-family:Arial; font-weight:normal; font-style:normal; font-size:8pt; fill:#000000; fill-opacity:1.00; stroke:#000000; stroke-opacity:1.00; stroke-width:0;"  transform="rotate( -90.00 46 188 )  " >lagged CRIME</text> 
</g>
<g style="fill:#0000FF; fill-opacity:1.00; stroke:#787878; stroke-linecap:round; stroke-linejoin:round; stroke-width:1" 
   transform="translate(0.00 0.00) scale(1.00 1.00)">
<path d="M73 156 L335 156" /> 
</g>
<g style="fill:#0000FF; fill-opacity:1.00; stroke:#787878; stroke-linecap:round; stroke-linejoin:round; stroke-width:1" 
   transform="translate(0.00 0.00) scale(1.00 1.00)">
<path d="M204 287 L204 25" /> 
</g>
<g style="fill:#000000; fill-opacity:0.0; stroke:#004FF1; stroke-opacity:1.00; stroke-linecap:round; stroke-linejoin:round; stroke-width:1" 
   transform="translate(0.00 0.00) scale(1.00 1.00)">
<ellipse cx="146" cy="187" rx="2" ry="2"  /> 
<ellipse cx="155" cy="182" rx="2" ry="2"  /> 
<ellipse cx="190" cy="173" rx="2" ry="2"  /> 
<ellipse cx="196" cy="157" rx="2" ry="2"  /> 
<ellipse cx="251" cy="139" rx="2" ry="2"  /> 
<ellipse cx="177" cy="139" rx="2" ry="2"  /> 
<ellipse cx="99" cy="112" rx="2" ry="2"  /> 
<ellipse cx="214" cy="136" rx="2" ry="2"  /> 
<ellipse cx="190" cy="150" rx="2" ry="2"  /> 
<ellipse cx="201" cy="185" rx="2" ry="2"  /> 
<ellipse cx="286" cy="111" rx="2" ry="2"  /> 
<ellipse cx="269" cy="131" rx="2" ry="2"  /> 
<ellipse cx="239" cy="147" rx="2" ry="2"  /> 
<ellipse cx="270" cy="132" rx="2" ry="2"  /> 
<ellipse cx="245" cy="110" rx="2" ry="2"  /> 
<ellipse cx="263" cy="104" rx="2" ry="2"  /> 
<ellipse cx="209" cy="207" rx="2" ry="2"  /> 
<ellipse cx="231" cy="107" rx="2" ry="2"  /> 
<ellipse cx="262" cy="121" rx="2" ry="2"  /> 
<ellipse cx="99" cy="164" rx="2" ry="2"  /> 
<ellipse cx="219" cy="130" rx="2" ry="2"  /> 
<ellipse cx="200" cy="153" rx="2" ry="2"  /> 
<ellipse cx="159" cy="205" rx="2" ry="2"  /> 
<ellipse cx="214" cy="96" rx="2" ry="2"  /> 
<ellipse cx="283" cy="111" rx="2" ry="2"  /> 
<ellipse cx="222" cy="115" rx="2" ry="2"  /> 
<ellipse cx="257" cy="161" rx="2" ry="2"  /> 
<ellipse cx="270" cy="118" rx="2" ry="2"  /> 
<ellipse cx="281" cy="105" rx="2" ry="2"  /> 
<ellipse cx="306" cy="115" rx="2" ry="2"  /> 
<ellipse cx="151" cy="204" rx="2" ry="2"  /> 
<ellipse cx="156" cy="220" rx="2" ry="2"  /> 
<ellipse cx="225" cy="149" rx="2" ry="2"  /> 
<ellipse cx="170" cy="195" rx="2" ry="2"  /> 
<ellipse cx="216" cy="162" rx="2" ry="2"  /> 
<ellipse cx="141" cy="205" rx="2" ry="2"  /> 
<ellipse cx="226" cy="108" rx="2" ry="2"  /> 
<ellipse cx="260" cy="130" rx="2" ry="2"  /> 
<ellipse cx="156" cy="213" rx="2" ry="2"  /> 
<ellipse cx="147" cy="198" rx="2" ry="2"  /> 
<ellipse cx="155" cy="198" rx="2" ry="2"  /> 
<ellipse cx="148" cy="204" rx="2" ry="2"  /> 
<ellipse cx="209" cy="152" rx="2" ry="2"  /> 
<ellipse cx="176" cy="154" rx="2" ry="2"  /> 
<ellipse cx="186" cy="165" rx="2" ry="2"  /> 
<ellipse cx="148" cy="211" rx="2" ry="2"  /> 
<ellipse cx="182" cy="208" rx="2" ry="2"  /> 
<ellipse cx="178" cy="175" rx="2" ry="2"  /> 
<ellipse cx="166" cy="179" rx="2" ry="2"  /> 
</g>
<g style="fill:#000000; fill-opacity:0.0; stroke:#64006E; stroke-opacity:1.00; stroke-linecap:round; stroke-linejoin:round; stroke-width:1" 
   transform="translate(0.00 0.00) scale(1.00 1.00)">
<path d="M73 221 L335 90" /> 
</g>
<g style="fill:#000000; fill-opacity:0.0; stroke:#000000; stroke-opacity:0.0; stroke-linecap:round; stroke-linejoin:round; stroke-width:1" 
   transform="translate(0.00 0.00) scale(1.00 1.00)">
<path d="M73 25 L73 25" /> 
</g>
<g style="fill:#000000; fill-opacity:0.0; stroke:#000000; stroke-opacity:0.0; stroke-linecap:round; stroke-linejoin:round; stroke-width:1" 
   transform="translate(0.00 0.00) scale(1.00 1.00)">
<path d="M73 25 L73 25" /> 
</g>
<g style="fill:#0000FF; fill-opacity:1.00; stroke:#64006E; stroke-opacity:1.00; stroke-linecap:round; stroke-linejoin:round; stroke-width:1" 
   transform="translate(0.00 0.00) scale(1.00 1.00)">
 <text x="157" y="17" style="font-family:Arial; font-weight:normal; font-style:normal; font-size:8pt; fill:#64006E; fill-opacity:1.00; stroke:#64006E; stroke-opacity:1.00; stroke-width:0;"  transform="rotate( -0.00 157 17 )  " >Moran's I: 0.500189</text> 
</g> 
</svg> 
